<?xml version="1.0" standalone="no"?><svg xmlns="http://www.w3.org/2000/svg" viewBox="0 0 1440 320"><path fill="#143934" fill-opacity="1" d="M0,96L40,90.7C80,85,160,75,240,90.7C320,107,400,149,480,186.7C560,224,640,256,720,234.7C800,213,880,139,960,122.7C1040,107,1120,149,1200,154.7C1280,160,1360,128,1400,112L1440,96L1440,320L1400,320C1360,320,1280,320,1200,320C1120,320,1040,320,960,320C880,320,800,320,720,320C640,320,560,320,480,320C400,320,320,320,240,320C160,320,80,320,40,320L0,320Z"></path></svg>